<svg width="129" height="23" viewBox="0 0 129 23" fill="none" xmlns="http://www.w3.org/2000/svg">
<path d="M15.532 20.636C13.5534 21.1213 11.528 21.364 9.45603 21.364C7.38403 21.364 5.78803 21.0746 4.66803 20.496C3.54803 19.8986 2.73603 18.9093 2.23203 17.528C1.7467 16.1466 1.50403 14.1586 1.50403 11.564C1.50403 7.84931 2.07336 5.31064 3.21203 3.94798C4.36936 2.56664 6.5627 1.87598 9.79203 1.87598C11.136 1.87598 12.7227 2.06264 14.552 2.43598L15.532 2.63198L15.364 7.64398C13.8334 7.45731 12.4147 7.36398 11.108 7.36398C9.82003 7.36398 8.98936 7.61598 8.61603 8.11998C8.24269 8.60531 8.05603 9.62264 8.05603 11.172C8.05603 12.7213 8.14003 13.7946 8.30803 14.392C8.4947 14.9893 8.78403 15.3906 9.17603 15.596C9.56803 15.7826 10.2027 15.876 11.08 15.876L15.448 15.708L15.532 20.636Z" fill="white"/>
<path d="M23.1537 2.23998V14.532C23.1537 15.0733 23.2844 15.456 23.5457 15.68C23.8257 15.904 24.2831 16.016 24.9177 16.016C25.5524 16.016 26.0004 15.904 26.2617 15.68C26.5231 15.456 26.6537 15.0733 26.6537 14.532V2.23998H33.1497V14.168C33.1497 16.8186 32.487 18.6853 31.1617 19.768C29.8364 20.832 27.7457 21.364 24.8897 21.364C22.0524 21.364 19.971 20.8413 18.6457 19.796C17.3204 18.7506 16.6577 16.912 16.6577 14.28V2.23998H23.1537Z" fill="white"/>
<path d="M45.1832 21H38.6872V15.12L33.3392 2.23998H40.2272L41.9912 7.75598L43.8112 2.23998H50.6712L45.1832 15.12V21Z" fill="white"/>
<path d="M50.7169 7.53198V2.23998H64.7169V7.53198H61.0769V21H54.5809V7.53198H50.7169Z" fill="white"/>
<path d="M71.6563 11.62C71.6563 13.2066 71.8056 14.3546 72.1043 15.064C72.4216 15.7546 73.0656 16.1 74.0363 16.1C75.0256 16.1 75.6696 15.7546 75.9683 15.064C76.267 14.3733 76.4163 13.2253 76.4163 11.62C76.4163 9.99598 76.267 8.84798 75.9683 8.17598C75.6883 7.48531 75.0536 7.13998 74.0643 7.13998C73.0749 7.13998 72.4216 7.49464 72.1043 8.20398C71.8056 8.89464 71.6563 10.0333 71.6563 11.62ZM82.9683 11.62C82.9683 15.036 82.2589 17.5186 80.8403 19.068C79.4216 20.5986 77.1536 21.364 74.0363 21.364C70.9376 21.364 68.6696 20.5893 67.2323 19.04C65.8136 17.4906 65.1043 15.0173 65.1043 11.62C65.1043 8.20398 65.8136 5.73064 67.2323 4.19998C68.651 2.65064 70.9189 1.87598 74.0363 1.87598C77.1536 1.87598 79.4216 2.65064 80.8403 4.19998C82.2589 5.73064 82.9683 8.20398 82.9683 11.62Z" fill="white"/>
<path d="M91.6181 17.024H90.7501V21H84.2541V2.23998H91.6181C94.5861 2.23998 96.7421 2.75331 98.0861 3.77998C99.4488 4.80664 100.13 6.73864 100.13 9.57598C100.13 12.3946 99.4488 14.3453 98.0861 15.428C96.7234 16.492 94.5674 17.024 91.6181 17.024ZM90.7501 11.9H91.3381C92.1408 11.9 92.7101 11.7226 93.0461 11.368C93.4008 11.0133 93.5781 10.4066 93.5781 9.54798C93.5781 8.68931 93.4101 8.11064 93.0741 7.81198C92.7568 7.51331 92.1781 7.36398 91.3381 7.36398H90.7501V11.9Z" fill="white"/>
<path d="M101.399 21V2.23998H107.895V21H101.399Z" fill="white"/>
<path d="M108.594 21L112.738 2.23998H122.566L126.794 21H120.242L119.71 18.844H115.426L114.978 21H108.594ZM117.33 7.33598L116.266 13.888H119.038L118.03 7.33598H117.33Z" fill="white"/>
<path fill-rule="evenodd" clip-rule="evenodd" d="M16.5455 21.417L15.7703 21.6072C13.7123 22.112 11.6069 22.364 9.45603 22.364C7.31522 22.364 5.53416 22.0691 4.20901 21.3844L4.1974 21.3784C2.82591 20.6469 1.86682 19.4445 1.29261 17.8707L1.2885 17.8595C0.747428 16.3195 0.504028 14.1984 0.504028 11.564C0.504028 7.82686 1.06045 4.96329 2.44467 3.30676L2.44551 3.30576C3.89936 1.57051 6.48726 0.875977 9.79203 0.875977C11.223 0.875977 12.8791 1.07404 14.7501 1.45579C14.7507 1.45592 14.7514 1.45604 14.752 1.45617L15.6577 1.63731V1.23998H24.1537V14.532C24.1537 14.7276 24.178 14.8431 24.1981 14.9018C24.2 14.9076 24.2019 14.9127 24.2036 14.917C24.2293 14.9287 24.2717 14.9448 24.3366 14.9607C24.4658 14.9923 24.6547 15.016 24.9177 15.016C25.1814 15.016 25.3658 14.9922 25.4872 14.9618C25.5466 14.947 25.5823 14.9328 25.6009 14.924C25.6033 14.9184 25.6062 14.9111 25.6094 14.9018C25.6294 14.8431 25.6537 14.7276 25.6537 14.532V1.23998H40.9572L42.006 4.51945L43.0881 1.23998H65.7169V4.5403C65.9496 4.1727 66.2093 3.83289 66.4971 3.52212C68.1811 1.68482 70.7766 0.875977 74.0363 0.875977C77.2964 0.875977 79.8921 1.68503 81.5761 3.52283C82.3138 4.31962 82.8667 5.30719 83.2541 6.46475V1.23998H91.6181C94.6564 1.23998 97.0834 1.75689 98.6909 2.98356C99.4475 3.55458 100.007 4.31925 100.399 5.24328V1.23998H108.895V15.0047L111.935 1.23998H123.366L128.045 22H119.459L118.927 19.844H116.24L115.792 22H100.399V13.9127C100.01 14.8418 99.4545 15.618 98.7082 16.2109L98.7016 16.2162C97.1003 17.4664 94.7185 18.0081 91.7501 18.0236V22H83.2541V16.7839C82.8668 17.9457 82.3143 18.9389 81.5778 19.7433L81.5737 19.7478C79.889 21.5654 77.2943 22.364 74.0363 22.364C70.7903 22.364 68.1994 21.5528 66.4992 19.7201L66.4947 19.7153C64.8295 17.8966 64.1043 15.1214 64.1043 11.62C64.1043 10.5155 64.1757 9.48369 64.3254 8.53198H62.0769V22H53.5809V8.53198H49.7169V7.03072L46.1832 15.3241V22H37.6872V15.3193L34.1497 6.79986V14.168C34.1497 16.9528 33.4558 19.1851 31.7944 20.5424L31.7878 20.5478C30.1993 21.823 27.8318 22.364 24.8897 22.364C21.9672 22.364 19.6131 21.8326 18.0264 20.5811C17.3737 20.0663 16.87 19.4158 16.4983 18.6499L16.5455 21.417ZM33.1497 2.23998H26.6537V14.532C26.6537 15.0733 26.5231 15.456 26.2617 15.68C26.0004 15.904 25.5524 16.016 24.9177 16.016C24.283 16.016 23.8257 15.904 23.5457 15.68C23.2844 15.456 23.1537 15.0733 23.1537 14.532V2.23998H16.6577V14.28C16.6577 16.912 17.3204 18.7506 18.6457 19.796C19.9711 20.8413 22.0524 21.364 24.8897 21.364C27.7457 21.364 29.8364 20.832 31.1617 19.768C32.487 18.6853 33.1497 16.8186 33.1497 14.168V2.23998ZM38.6872 15.12V21H45.1832V15.12L50.6712 2.23998H43.8112L41.9912 7.75598L40.2272 2.23998H33.3392L38.6872 15.12ZM50.7169 7.53198H54.5809V21H61.0769V7.53198H64.7169V2.23998H50.7169V7.53198ZM65.3384 8.53198C65.1823 9.4576 65.1043 10.4869 65.1043 11.62C65.1043 15.0173 65.8136 17.4906 67.2323 19.04C68.6696 20.5893 70.9376 21.364 74.0363 21.364C77.1536 21.364 79.4216 20.5986 80.8403 19.068C82.2589 17.5186 82.9683 15.036 82.9683 11.62C82.9683 8.20398 82.2589 5.73064 80.8403 4.19998C79.4216 2.65064 77.1536 1.87598 74.0363 1.87598C70.9189 1.87598 68.6509 2.65064 67.2323 4.19998C66.5748 4.90938 66.0696 5.82127 65.7169 6.93564C65.6559 7.12836 65.5994 7.32714 65.5475 7.53198C65.4668 7.85065 65.3971 8.18398 65.3384 8.53198ZM90.7501 17.024H91.6181C94.5674 17.024 96.7234 16.492 98.0861 15.428C99.4488 14.3453 100.13 12.3946 100.13 9.57598C100.13 6.73864 99.4488 4.80664 98.0861 3.77998C96.7421 2.75331 94.5861 2.23998 91.6181 2.23998H84.2541V21H90.7501V17.024ZM107.895 21V2.23998H101.399V21H107.895ZM114.978 21L115.426 18.844H119.71L120.242 21H126.794L122.566 2.23998H112.738L108.594 21H114.978ZM15.6577 8.6872L15.243 8.63662C13.7455 8.45401 12.3678 8.36398 11.108 8.36398C10.5197 8.36398 10.0969 8.42267 9.80933 8.50991C9.52226 8.597 9.43756 8.69094 9.41959 8.7152L9.41419 8.7225L9.40865 8.72969C9.3639 8.78786 9.26154 8.98092 9.17961 9.42745C9.10114 9.85508 9.05603 10.4311 9.05603 11.172C9.05603 12.7107 9.14261 13.6533 9.26695 14.1078C9.39803 14.5196 9.54705 14.6551 9.62557 14.702C9.81533 14.7846 10.2525 14.8746 11.0612 14.876L15.6632 14.699C15.6595 14.5608 15.6577 14.4211 15.6577 14.28V8.6872ZM11.08 15.876C10.2027 15.876 9.56803 15.7826 9.17603 15.596C8.78403 15.3906 8.4947 14.9893 8.30803 14.392C8.14003 13.7946 8.05603 12.7213 8.05603 11.172C8.05603 9.62264 8.2427 8.60531 8.61603 8.11998C8.98936 7.61598 9.82003 7.36398 11.108 7.36398C12.1264 7.36398 13.2128 7.42067 14.3672 7.53404C14.694 7.56614 15.0263 7.60279 15.364 7.64398L15.532 2.63198L14.552 2.43598C12.7227 2.06264 11.136 1.87598 9.79203 1.87598C6.5627 1.87598 4.36936 2.56664 3.21203 3.94798C2.07336 5.31064 1.50403 7.84931 1.50403 11.564C1.50403 14.1586 1.74669 16.1466 2.23203 17.528C2.73603 18.9093 3.54803 19.8986 4.66803 20.496C5.78803 21.0746 7.38403 21.364 9.45603 21.364C11.528 21.364 13.5534 21.1213 15.532 20.636L15.448 15.708L11.08 15.876ZM75.0478 8.567L75.0415 8.55168C74.9855 8.41346 74.9116 8.33572 74.8043 8.27736C74.6778 8.20853 74.4507 8.13998 74.0643 8.13998C73.6832 8.13998 73.4491 8.20896 73.3094 8.28483C73.1862 8.35167 73.0926 8.44618 73.0196 8.60681C72.8091 9.09837 72.6563 10.0581 72.6563 11.62C72.6563 13.1688 72.8063 14.1418 73.0193 14.66C73.09 14.8077 73.1795 14.8962 73.2979 14.9597C73.4347 15.033 73.6638 15.1 74.0363 15.1C74.4218 15.1 74.6543 15.0317 74.7887 14.9597C74.9056 14.897 74.9877 14.812 75.0504 14.6671C75.2618 14.1782 75.4163 13.2088 75.4163 11.62C75.4163 10.0069 75.2605 9.04568 75.0545 8.58211L75.0478 8.567ZM72.1043 15.064C71.8056 14.3546 71.6563 13.2066 71.6563 11.62C71.6563 10.0333 71.8056 8.89464 72.1043 8.20398C72.4216 7.49464 73.075 7.13998 74.0643 7.13998C75.0536 7.13998 75.6883 7.48531 75.9683 8.17598C76.2669 8.84798 76.4163 9.99598 76.4163 11.62C76.4163 13.2253 76.2669 14.3733 75.9683 15.064C75.6696 15.7546 75.0256 16.1 74.0363 16.1C73.0656 16.1 72.4216 15.7546 72.1043 15.064ZM92.3294 10.6704L92.339 10.6609C92.4102 10.5896 92.5781 10.3179 92.5781 9.54798C92.5781 9.17648 92.5409 8.91811 92.4917 8.74879C92.4515 8.61032 92.4131 8.56357 92.408 8.55787L92.3991 8.54993L92.3887 8.54018C92.3898 8.54119 92.3362 8.49174 92.1522 8.44425C92.047 8.4171 91.9142 8.39454 91.7501 8.38032V10.8775C92.132 10.8311 92.2772 10.7256 92.3201 10.6802L92.3294 10.6704ZM91.7501 11.8826C91.6204 11.8942 91.483 11.9 91.3381 11.9H90.7501V7.36398H91.3381C91.4832 7.36398 91.6206 7.36843 91.7501 7.37735C92.3703 7.42004 92.8116 7.56491 93.0741 7.81198C93.4101 8.11064 93.5781 8.68931 93.5781 9.54798C93.5781 10.4066 93.4008 11.0133 93.0461 11.368C92.7708 11.6586 92.3388 11.8302 91.7501 11.8826ZM116.266 13.888H119.038L118.03 7.33598H117.33L116.266 13.888ZM117.663 11.5254L117.442 12.888H117.873L117.663 11.5254Z" fill="black"/>
</svg>
